<svg xmlns="http://www.w3.org/2000/svg" width= "100" height= "100">
  <g fill="#fde1c1" fill-rule="evenodd">
    <path d="m67.304 87.235v-2.1164s-6.6138 0.13228-8.4656-1.3228c-1.8519-1.455-3.0423-3.9683-3.0423-7.8042v-12.037s17.593-1.8519 23.148-7.4074c5.5556-5.5556 7.1429-14.55 7.1429-20.106 0-2.7778 0.02911-10.244 0.02911-14.147 0-2.3839 0.42124-6.6284 3.6566-6.6284 1.6087 0 4.1185 8e-3 4.1185 8e-3v-2.7778s-3.4392-0.13228-5.5556-0.13228-7.209 0.33069-9.7884 2.9101c-2.5794 2.5794-4.2328 9.6561-4.2328 21.825 0 12.169-1.0582 15.476-4.1005 18.519-4.564 4.564-14.418 4.8942-14.418 4.8942v-34.921c0-4.2328-0.13228-6.4815 1.8519-8.4656s8.5979-1.7196 8.5979-1.7196v-3.0423h-32.492v3.0423s6.6138-0.26455 8.5979 1.7196 1.8519 4.2328 1.8519 8.4656v34.921s-9.854-0.33021-14.418-4.8942c-3.0423-3.0423-4.1005-6.3492-4.1005-18.518 0-12.169-1.6534-19.246-4.2328-21.825-2.5794-2.5794-7.672-2.9101-9.7884-2.9101-2.1164 0-5.5556 0.13228-5.5556 0.13228v2.7778s2.5098-8e-3 4.1185-8e-3c3.2354 0 3.6566 4.2445 3.6566 6.6284 0 3.903 0.02911 11.369 0.02911 14.147 0 5.5556 1.5873 14.55 7.1429 20.106 5.5556 5.5556 23.148 7.4074 23.148 7.4074v12.037c0 3.836-1.1905 6.3492-3.0423 7.8042-1.8519 1.455-8.4656 1.3228-8.4656 1.3228v2.1164"/>
  </g>
</svg>
